<svg xmlns="http://www.w3.org/2000/svg" width="250" height="250" fill="none" viewBox="0 0 250 250"><path fill="#4BA9FF" d="M142.223 103.615q-.532-5.859-4.741-9.109-4.155-3.302-11.878-3.302-5.114 0-8.523 1.332-3.409 1.33-5.114 3.675-1.704 2.29-1.757 5.273-.107 2.45.958 4.315 1.119 1.864 3.196 3.303 2.131 1.385 5.114 2.45t6.712 1.864l9.375 2.131q8.096 1.758 14.275 4.687 6.232 2.93 10.441 6.978 4.26 4.048 6.445 9.322 2.184 5.274 2.237 11.825-.052 10.334-5.22 17.738t-14.862 11.346q-9.64 3.942-23.277 3.942-13.69 0-23.864-4.102-10.174-4.101-15.82-12.464t-5.806-21.147h25.248q.32 5.273 2.823 8.789t6.872 5.327q4.42 1.81 10.227 1.811 5.327 0 9.055-1.438 3.782-1.438 5.807-3.996 2.024-2.556 2.077-5.859-.053-3.09-1.918-5.273-1.863-2.237-5.752-3.836-3.835-1.65-9.802-3.036l-11.399-2.663q-14.168-3.249-22.319-10.494-8.15-7.297-8.096-19.709-.054-10.121 5.433-17.737 5.487-7.618 15.181-11.879 9.695-4.26 22.106-4.261 12.678 0 21.999 4.314 9.376 4.262 14.542 11.985 5.167 7.724 5.274 17.898z"/><path fill="#1E1E1E" d="M205 143a80 80 0 0 1-23.431 56.569 80.005 80.005 0 0 1-113.137 0A80 80 0 0 1 45 143h20a59.999 59.999 0 0 0 102.426 42.426A60 60 0 0 0 185 143zM51.36 82.742a80 80 0 0 1 147.815 1.29l-18.544 7.492a59.999 59.999 0 0 0-110.861-.968z"/></svg>